<svg version="1.1" viewBox="0 0 605.04 594.67" xml:space="preserve" xmlns="http://www.w3.org/2000/svg" xmlns:cc="http://creativecommons.org/ns#" xmlns:dc="http://purl.org/dc/elements/1.1/" xmlns:rdf="http://www.w3.org/1999/02/22-rdf-syntax-ns#"><metadata><rdf:RDF><cc:Work rdf:about=""><dc:format>image/svg+xml</dc:format><dc:type rdf:resource="http://purl.org/dc/dcmitype/StillImage"/><dc:title/></cc:Work></rdf:RDF></metadata><g transform="matrix(1.3333 0 0 -1.3333 -110 750)"><g clip-path="url(#clipPath855)"><path d="m505.41 400.44c1.406 6.634 4.822 5.483 6.295-2.831 3.734-39.252-8.599-67.524-29.329-81.949 0 0-7.724 5.557-9.869 12.222 12.213 3.077 25.94 35.584 23.932 43.191-4.823-2.83-15.102-12.283-17.915-15.292-6.963 5.679-16.737 9.453-16.737 9.453 9.038 2.39 42.217 28.574 43.623 35.206m6.964-127.37c-0.109-1.159-2.065-1.141-5.234-0.145-15.524 21.728-64.487 34.655-60.005 65.733 0 0 12.058-0.884 17.297-5.624 7.432-18.574 33.211-35.729 34.215-32.544 1.004 3.181-4.025 10.636-7.839 16.476 7.598 5.094 11.844 13.21 11.844 13.21 9.809-15.412 12.02-32.812 9.722-57.106m-133 58.073c-7.231 3.539-9.492 6.674-2.529 10.566 47.834 26.734 83.239 26.598 106.81 3.957-1.607-4.426-9.496-12.285-11.103-12.724-23.704 21.758-71.732 8.812-72.535 3.504-0.806-5.307 38.45-17.106 45.882-14.187 1.406-2.388 3.958-9.171 13.341-16.64-31.069-7.079-72.631 21.986-79.863 25.524m64.905-59.013c-13.614-28.348-36.334-51.521-64.345-65.716-13.696 41.816-25.628 79.614-27.646 89.732 0.06 0.057 0.115 0.12 0.174 0.177 1.399 1.318 2.73 2.703 3.994 4.151 19.583-5.846 52.682-16.627 87.823-28.344m-131.66 18.095c-26.706 0-48.433 21.727-48.433 48.433 0 26.707 21.727 48.434 48.433 48.434 26.707 0 48.435-21.727 48.435-48.434 0-26.706-21.728-48.433-48.435-48.433m10.334-122.27c-4.248 1.607-12.801 8.345-13.225 9.95 20.897 23.705 9.301 72.719 4.204 73.523-5.096 0.804-16.547-37.644-13.744-45.075-2.294-1.407-11.167-7.316-15.861-14.15-6.797 31.07 21.114 72.631 24.513 79.864 3.398 7.23 6.409 9.493 10.147 2.53 25.673-47.833 25.713-83.073 3.966-106.64m52.439-21.922c6.372-1.407 5.267-4.82-2.718-6.294-37.697-3.733-65.662 9.803-79.518 30.532 0 0 10.202 10.582 11.729 10.715 1.531-13.39 34.999-27.989 42.305-25.98-2.716 4.821-12.143 15.457-15.03 18.269 6.244 7.558 9.423 16.381 9.423 16.381 2.295-9.037 27.438-42.217 33.809-43.623m-122.32-6.964c-1.112 0.11-1.096 2.064-0.139 5.236 20.867 15.522 34.512 64.332 64.357 59.848 0 0-3.268-13.705-6.633-17.14-17.836-7.433-34.31-33.212-31.253-34.217 3.058-1.004 9.697 4.37 15.302 8.187 5.115-7.916 14.2-11.56 14.2-11.56-14.801-9.81-32.502-12.651-55.834-10.354m18.65 155.69c-0.658-10.464-11.617-46.878-24.359-86.141-27.252 14.97-49.102 38.59-61.836 67.143 36.709 12.922 69.967 23.717 79.941 24.385 1.316 0.086 2.523 0.056 3.654-0.063 0.723-0.813 1.46-1.61 2.227-2.382 0.295-0.964 0.437-1.939 0.373-2.942m-21.155 40.432c-47.832-26.855-83.861-26.15-107.43-3.4 1.606 4.444 9.136 12.644 10.742 13.089 23.704-21.863 72.719-9.732 73.521-4.4 0.804 5.333-38.636 17.148-46.069 14.216-2.719 5.516-6.778 12.092-13.155 16.756 31.068 7.111 72.631-22.088 79.861-25.643 3.436-1.691 5.731-3.288 6.467-4.919-0.027-0.743-0.057-1.487-0.057-2.237 0-0.035 3e-3 -0.07 3e-3 -0.107-0.541-1.07-1.787-2.176-3.882-3.355m-128.56-59.006c-1.407-6.666-4.822-5.51-6.295 2.843-3.733 39.435 8.431 67.704 29.159 82.198 0 0 8.493-7.02 10.198-12.135-13.392-1.601-26.099-35.76-24.091-43.403 4.822 2.842 15.281 12.524 18.094 15.545 6.963-5.708 17.769-9.164 17.769-9.164-9.039-2.399-43.428-29.219-44.834-35.884m-6.965 127.97c0.111 1.163 2.065 1.147 5.236 0.146 15.522-21.828 64.332-36.105 59.85-67.328 0 0-13.707 3.417-17.143 6.938-7.431 18.66-33.211 35.895-34.216 32.697-1.005-3.201 4.464-11.367 8.281-17.23-5.647-2.209-12.296-12.578-12.296-12.578-9.809 15.483-12.009 32.947-9.712 57.355m75.963-1.735c13.834 24.978 34.948 45.386 60.465 58.335 12.441-32.877 23.543-63.299 26.545-74.672-1.33-1.215-2.504-2.431-3.57-3.588-1.727-1.506-3.373-3.099-4.912-4.797-12.039 1.869-43.58 12.289-78.528 24.722m114.8 106.02c4.448-1.607 13.171-8.578 13.613-10.184-21.881-23.705-9.74-72.721-4.401-73.523 5.335-0.805 16.943 39.372 14.008 46.804 2.401 1.407 12.141 7.032 16.991 12.421 7.116-31.07-22.11-72.633-25.668-79.865-3.558-7.23-6.711-9.492-10.625-2.528-26.881 47.832-26.688 83.304-3.918 106.88m-55.143 21.688c-6.671 1.405-5.515 4.819 2.846 6.294 39.473 3.733 68.755-9.804 83.262-30.532 0 0-10.902-9.433-12.502-9.568-1.602 13.393-36.426 26.841-44.076 24.833 2.846-4.821 11.951-14.702 14.974-17.514-5.71-6.963-9.103-17.138-9.103-17.138-2.402 9.04-28.73 42.217-35.401 43.625m128.08 6.963c1.162-0.109 1.149-2.064 0.146-5.235-21.849-15.522-36.138-64.331-67.389-59.849 0 0 3.42 13.707 6.944 17.142 18.678 7.431 35.928 33.212 32.725 34.214-3.201 1.005-11.189-4.343-17.062-8.161-5.909 9.176-14.443 11.155-14.443 11.155 15.498 9.81 34.648 13.031 59.079 10.734m-5.844-72.966c28.402-12.486 51.979-33.975 67.103-60.839-36.963-14.287-71.8-26.769-81.899-27.414-0.252-0.016-0.496-0.025-0.733-0.025-0.018 0-0.033 5e-3 -0.05 5e-3 -3.035 3.639-6.506 6.901-10.331 9.712-0.158 0.173-0.322 0.344-0.488 0.514 2.143 12.635 13.508 44.454 26.398 78.047m85.444-73.94-90.878-32.135c-0.712 2.008-1.521 3.968-2.44 5.867-0.293 0.978-0.709 1.979-1.231 2.99 16.774 3.432 54.942 17.541 90.931 31.638-1.385 2.956-2.858 5.875-4.434 8.742-6.619 12.043-14.913 23.264-24.767 33.37-14.139 14.499-30.654 25.842-48.686 33.671-2.983 1.297-6.011 2.492-9.074 3.593-13.104-33.726-26.14-69.26-30.123-86.748-1.763 0.844-3.577 1.597-5.433 2.263l30.344 86.261 3.235 9.427 19.165 54.714h-146.14l20.481-56.923 3.359-9.414 30.334-84.024c-2.133-0.767-4.205-1.689-6.215-2.691-4.531 15.599-17.402 50.402-30.267 84.176-3.008-1.272-5.963-2.651-8.871-4.107-28.342-14.188-51.781-36.92-66.856-64.769-1.55-2.866-3.017-5.783-4.388-8.751 33.957-12.233 68.939-24.18 86.588-28.218-2.28-3.469-3.951-6.952-4.997-10.436l-84.986 30.695-9.568 3.361-56.79 20.415v-149.06l53.614 19.287 9.301 3.316 87.717 31.689c0.893-2.264 2.172-4.326 3.566-6.249 0.445-0.865 0.928-1.718 1.416-2.557-14.803-2.208-53.594-15.221-90.674-28.44 1.109-3.048 2.319-6.059 3.62-9.03 7.316-16.696 17.656-32.11 30.761-45.55 11.282-11.572 24.084-21.124 37.955-28.496 2.895-1.536 5.833-2.98 8.816-4.325 12.503 38.037 25.372 79.326 28.183 96.183 3.793-2.475 7.888-4.524 12.222-6.07l-33.352-93.078-3.288-9.384-17.681-49.553h146.14l-16.398 47.209-3.25 9.418-33.238 95.32c4.191 1.492 8.157 3.479 11.844 5.842 4.586-17.997 17.948-59.575 30.486-97.611 3.025 1.265 6 2.637 8.925 4.086 31.114 15.427 56.371 41.125 71.22 72.599 1.39 2.946 2.684 5.943 3.888 8.986-34.431 11.539-72.11 23.936-95.921 31.076 1.988 3.304 3.65 6.822 4.957 10.507l93.99-33.234 9.479-3.286 48.708-17.156v146.14l-51.919-18.293zm9.473-115.65c-1.178-3.039-2.447-6.044-3.809-9.006-8.127-17.683-19.469-33.93-33.719-47.992-13.013-12.84-27.815-23.225-43.828-30.945-2.945-1.42-5.927-2.578-8.95-3.815 8.327-25.154 15.911-47.94 19.791-58.94h-168.32c3.839 11 11.955 34.458 20.681 60.78-2.986 1.325-5.937 2.639-8.841 4.144-15.321 7.939-29.434 18.328-41.833 31.042-14.099 14.459-25.189 31.043-32.984 49.034-1.289 2.977-2.389 5.979-3.496 9.026-28.192-10.146-53.868-19.9-65.868-24.396v173.62c12-4.774 40.333-15.399 70.491-26.366 1.342 2.97 2.731 5.894 4.252 8.78 7.726 14.667 17.715 28.217 29.842 40.181 12.757 12.59 27.215 22.826 42.863 30.496 2.924 1.434 5.889 2.59 8.893 3.843-10.743 28.054-20.945 53.819-25.645 65.819h169.46c-4.784-11-14.889-36.008-25.486-63.014 3.06-1.106 6.087-2.208 9.074-3.496 19.308-8.332 36.988-20.403 52.113-35.913 10.777-11.052 19.791-23.342 26.926-36.56 1.553-2.878 3.018-5.786 4.391-8.745 27.309 10.796 52.136 21.05 63.694 25.857l2.933-174.7c-12.022 4.123-35.79 12.249-62.627 21.273m-61.944-96.634-0.339-0.263 5.374-9.098c-3.213-1.887-6.514-3.696-9.825-5.385l-6.669 13.141-1.064 1.473 0.082 0.079c0.054 0.029 0.111 0.058 0.166 0.09l0.847 0.484c2.298 1.411 7.02 4.312 12.672 9.084l3.842-5.245c-1.635-1.541-3.344-3.007-5.086-4.36m19.965 14.021-0.379-0.3 6.587-8.467c-1.331-1.029-2.726-2.076-4.261-3.197-6.041-4.804-10.745-7.039-12.515-7.88-0.127-0.059-0.233-0.11-0.323-0.153l-3.425 6.037c0.246 0.131 0.589 0.303 0.983 0.497 1.296 0.644 3.466 1.72 6.255 3.404l0.439 0.266-5.507 8.094-0.843 1.165c0.262 0.172 0.638 0.402 1.07 0.667 2.3 1.413 7.029 4.316 12.684 9.091l3.84-5.245c-1.466-1.383-3.013-2.72-4.605-3.979m17.096 15.298-0.284-0.342 7.667-7.618c-1.563-1.563-3.286-3.213-5.409-5.185-4.05-4.587-7.348-7.148-8.757-8.241-0.11-0.086-0.203-0.158-0.281-0.22l-4.531 5.248c0.214 0.182 0.517 0.425 0.864 0.705 1.109 0.891 2.964 2.384 5.279 4.576l0.342 0.324-4.394 4.945-3.059 2.33c0.456 0.527 0.893 0.96 1.459 1.523 0.296 0.293 0.69 0.643 1.197 1.094 1.716 1.523 4.878 4.332 9.915 10.067l4.142-4.063c-1.357-1.734-2.753-3.462-4.15-5.143m15.611 16.984-0.301-0.386 8.166-6.266c-1.065-1.359-2.132-2.689-3.172-3.964l-0.717-0.874c-3.904-4.743-7.347-8.622-8.644-10.083-0.087-0.098-0.166-0.185-0.234-0.263l-5.169 4.992c0.122 0.132 0.197 0.196 0.301 0.284 0.129 0.109 0.292 0.247 0.591 0.544 0.841 0.836 2.113 2.097 4.537 4.744l0.337 0.366-7.433 6.502c0.239 0.346 0.554 0.81 0.785 1.147l0.252 0.37c0.89 1.287 2.104 3.042 9.348 12.2l5.347-4.233c-1.619-2.047-2.924-3.709-3.994-5.08m10.59 28.005 5.688-3.762c-1.347-2.038-2.444-3.707-3.358-5.109l-0.28-0.43 8.922-5.185c-2.967-5.099-5.165-9.279-6.634-12.078-1.06-2.016-1.825-3.473-2.275-4.129-0.348-0.507-0.572-0.834-0.759-1.14l-5.734 3.724c0.166 0.285 0.285 0.45 0.46 0.695 0.109 0.151 0.237 0.33 0.407 0.577 0.677 0.987 1.7 2.479 3.622 5.591l0.247 0.4-9.141 6.128 0.058 0.096-0.361 0.154c0.206 0.358 0.458 0.806 0.645 1.138l0.215 0.382c0.776 1.354 1.835 3.203 8.278 12.948m8.836-7.83c0.445 1.043 1 2.343 3.276 6.953l0.215 0.436-10.013 4.989c1.491 3.012 2.911 6.114 4.233 9.235l15.572-6.536c0.152-0.339 0.372-1.275 0.516-2.104-3.617-7.16-6.149-12.425-7.528-15.65-0.116-0.275-0.224-0.527-0.351-0.812l-6.423 2.923c0.192 0.143 0.394 0.311 0.503 0.566m-76.998-101.3c-0.823 2.446-1.654 4.918-2.491 7.418 45.235 20.519 81.562 57.328 101.48 102.89 2.497-0.848 4.971-1.69 7.421-2.524-20.816-47.769-59.018-86.384-106.41-107.78m-237.93 107.25-5.44-3.561c-1.45 1.709-2.823 3.493-4.086 5.309l-0.246 0.35-9.367-4.887c-1.719 3.313-3.352 6.703-4.862 10.092l13.475 5.971 1.526 0.986 0.069-0.078c0.03-0.061 0.058-0.125 0.088-0.187l0.438-0.865c1.287-2.366 3.934-7.235 8.405-13.13m7.159-23.736c-1.314 1.548-2.538 3.125-3.732 4.81l-0.279 0.393-8.799-6.133c-0.945 1.363-1.918 2.81-2.972 4.422-4.476 6.281-6.462 11.098-7.21 12.911-0.053 0.13-0.099 0.24-0.137 0.333l6.208 3.105c0.119-0.256 0.273-0.608 0.447-1.013 0.574-1.328 1.535-3.551 3.069-6.421l0.243-0.454 8.372 5.076 1.208 0.781c0.157-0.272 0.368-0.661 0.612-1.108 1.289-2.371 3.941-7.246 8.41-13.139zm15.567-17.48c-1.648 1.434-3.301 2.918-4.918 4.415l-0.328 0.302-8.008-7.257c-1.485 1.648-3.041 3.455-4.895 5.672-4.365 4.283-6.75 7.711-7.769 9.174-0.08 0.116-0.148 0.214-0.205 0.296l5.476 4.249c0.171-0.223 0.401-0.54 0.662-0.903 0.832-1.152 2.225-3.083 4.29-5.506l0.305-0.359 5.171 4.128 2.485 2.932c0.504-0.484 0.915-0.943 1.445-1.537 0.279-0.311 0.607-0.725 1.031-1.255 1.433-1.794 4.07-5.098 9.532-10.428zm16.086-16.323c-1.961 1.726-3.551 3.116-4.863 4.256l-0.371 0.322-6.686-7.827c-1.303 1.135-2.573 2.27-3.791 3.375l-0.834 0.764c-4.485 4.104-8.18 7.745-9.571 9.115-0.112 0.111-0.211 0.208-0.296 0.293l5.255 4.901c0.126-0.129 0.186-0.207 0.268-0.316 0.103-0.135 0.231-0.305 0.514-0.62 0.785-0.878 1.971-2.207 4.5-4.778l0.348-0.357 6.861 7.063 0.014-0.013 0.019 0.023c0.323-0.25 0.75-0.575 1.067-0.816l0.386-0.295c1.242-0.961 2.939-2.272 11.687-9.97zm18.492-13.27c-1.963 1.452-3.574 2.635-4.926 3.622l-0.414 0.302-5.646-8.639c-4.936 3.23-8.996 5.645-11.713 7.259-1.957 1.164-3.373 2.006-4.004 2.489-0.502 0.383-0.813 0.62-1.1 0.817l4.022 5.532c0.275-0.183 0.431-0.309 0.666-0.497 0.146-0.117 0.318-0.254 0.564-0.444 0.952-0.727 2.391-1.829 5.387-3.903l0.385-0.268 6.585 8.789 0.094-0.071 0.188 0.378c0.332-0.214 0.748-0.477 1.063-0.68l0.408-0.259c1.299-0.836 3.072-1.978 12.497-8.946zm-4.767-2.399c0.133-0.199 0.29-0.41 0.539-0.533 1.023-0.501 2.296-1.125 6.773-3.636l0.422-0.238 5.509 9.738c2.933-1.649 5.957-3.231 8.999-4.711l-7.344-15.207c-0.346-0.135-1.293-0.306-2.129-0.405-6.949 3.98-12.072 6.784-15.234 8.337-0.266 0.132-0.514 0.252-0.792 0.395zm10.482-32.25c-22.049 10.492-42.299 24.914-59.856 42.92-18.685 19.162-33.241 41.271-43.266 65.242 2.471 0.921 4.982 1.854 7.528 2.798 19.053-45.215 54.191-82.056 98.209-103.31-0.884-2.594-1.757-5.152-2.615-7.654m-16.402 335.2 0.392 0.282-6.234 8.729c1.324 0.942 2.76 1.931 4.387 3.021 6.23 4.551 11.023 6.591 12.826 7.359 0.13 0.054 0.24 0.101 0.332 0.141l3.175-6.172c-0.252-0.122-0.605-0.279-1.009-0.459-1.321-0.589-3.532-1.577-6.383-3.143l-0.451-0.248 5.173-8.313 0.793-1.197c-0.269-0.161-0.658-0.378-1.101-0.626-2.358-1.318-7.2-4.025-13.039-8.559l-3.625 5.397c1.535 1.334 3.096 2.575 4.764 3.788m-17.708-14.586 0.298 0.331-7.347 7.926c1.634 1.504 3.422 3.083 5.616 4.958 4.233 4.416 7.634 6.839 9.086 7.875 0.113 0.082 0.209 0.149 0.291 0.208l4.311-5.429c-0.221-0.173-0.536-0.405-0.897-0.673-1.144-0.844-3.057-2.259-5.455-4.352l-0.355-0.309 4.187-5.122 2.961-2.452c-0.478-0.509-0.932-0.923-1.522-1.461-0.306-0.283-0.716-0.617-1.24-1.045-1.777-1.452-5.052-4.129-10.32-9.653l-3.971 4.229c1.41 1.66 2.84 3.288 4.357 4.969m-28.023-43.876-5.527 3.991c1.428 1.98 2.593 3.603 3.564 4.967l0.297 0.418-8.703 5.547c3.177 4.976 5.545 9.065 7.129 11.802 1.139 1.968 1.963 3.388 2.438 4.026 0.369 0.496 0.605 0.811 0.806 1.108l5.574-3.956c-0.177-0.277-0.302-0.437-0.486-0.674-0.116-0.146-0.252-0.321-0.434-0.563-0.717-0.962-1.802-2.412-3.845-5.435l-0.262-0.389 8.858-6.481-0.071-0.097 0.387-0.185c-0.215-0.34-0.477-0.764-0.676-1.085l-0.246-0.397c-0.823-1.31-1.944-3.095-8.803-12.597m-8.509 8.184c-0.485-1.025-1.092-2.3-3.558-6.812l-0.232-0.427 9.801-5.396c-1.615-2.955-3.164-5.996-4.608-9.054l-15.29 7.17c-0.139 0.344-0.32 1.289-0.43 2.124 3.893 6.979 6.638 12.136 8.162 15.327 0.129 0.27 0.246 0.518 0.387 0.799l6.297-3.185c-0.199-0.136-0.408-0.294-0.529-0.546m32.13 23.26c-0.271-0.361-0.631-0.845-0.871-1.168l-0.217-0.292c-0.949-1.256-2.242-2.972-9.833-11.798l-5.17 4.448c1.701 1.979 3.072 3.585 4.199 4.913l0.318 0.374-7.903 6.594c1.12 1.317 2.239 2.599 3.331 3.83l0.753 0.845c4.05 4.528 7.649 8.266 9.004 9.672 0.11 0.113 0.206 0.214 0.29 0.302l4.961-5.199c-0.127-0.128-0.205-0.188-0.311-0.272-0.135-0.104-0.303-0.235-0.614-0.52-0.874-0.799-2.194-2.006-4.728-4.555l-0.352-0.354 7.153-6.791-0.019-0.023zm55.078 39.756c-0.062-0.029-0.126-0.061-0.189-0.09l-0.863-0.45c-2.352-1.315-7.188-4.019-13.029-8.555l-3.625 5.399c1.696 1.47 3.464 2.865 5.263 4.147l0.349 0.25-4.996 9.311c3.295 1.756 6.666 3.429 10.035 4.978l6.125-13.405 1.005-1.517zm-15.017 29.999c0.925-2.376 1.871-4.802 2.834-7.278-41.104-19.352-74.625-52.229-94.8-92.866-2.475 0.927-4.922 1.844-7.338 2.75 21.06 42.634 56.259 77.16 99.304 97.394m241.55-94.029c1.498-1.668 2.923-3.411 4.237-5.189l0.254-0.346 9.224 5.159c1.813-3.259 3.543-6.6 5.152-9.948l-13.295-6.358-1.499-1.03-0.071 0.074c-0.031 0.064-0.063 0.128-0.095 0.191l-0.465 0.858c-1.357 2.328-4.145 7.116-8.779 12.87zm-13.178 19.8c1.358-1.508 2.627-3.049 3.87-4.698l0.291-0.387 8.62 6.386c0.97-1.32 1.984-2.739 3.095-4.334 4.656-6.146 6.781-10.905 7.58-12.696 0.058-0.128 0.108-0.237 0.148-0.33l-6.114-3.282c-0.126 0.25-0.291 0.601-0.478 1.001-0.612 1.31-1.638 3.503-3.254 6.328l-0.255 0.447-8.221-5.317-1.185-0.814c-0.166 0.268-0.39 0.652-0.647 1.093-1.358 2.332-4.15 7.128-8.784 12.885zm-16.066 17.022c1.676-1.374 3.37-2.809 5.043-4.27l0.337-0.293 7.797 7.487c1.538-1.614 3.147-3.373 5.055-5.529 4.493-4.159 6.975-7.517 8.036-8.95 0.081-0.113 0.15-0.205 0.21-0.284l-5.352-4.406c-0.178 0.219-0.417 0.531-0.69 0.887-0.866 1.127-2.313 3.016-4.445 5.375l-0.316 0.351-5.048-4.276-2.4-3.002c-0.52 0.47-0.942 0.918-1.489 1.494-0.287 0.304-0.629 0.706-1.067 1.225-1.483 1.751-4.216 4.979-9.829 10.147zm-16.552 15.851c2.011-1.667 3.641-3.009 4.985-4.112l0.381-0.312 6.456 8.017c1.334-1.096 2.638-2.195 3.887-3.264l0.857-0.739c4.574-3.948 8.238-7.356 9.803-8.81 0.126-0.116 0.238-0.22 0.332-0.308l-5.112-5.051c-0.131 0.124-0.191 0.201-0.278 0.307-0.106 0.132-0.239 0.298-0.537 0.612-0.817 0.862-2.05 2.163-4.629 4.64l-0.36 0.346-6.626-7.228-0.026 0.026-0.047-0.059c-0.411 0.3-0.976 0.705-1.296 0.933l-0.183 0.131c-1.277 0.931-3.017 2.198-11.964 9.623zm-18.867 12.729c2.005-1.392 3.648-2.529 5.027-3.476l0.424-0.291 5.395 8.801c5.032-3.093 9.164-5.389 11.928-6.926 1.986-1.103 3.419-1.9 4.063-2.364 0.512-0.369 0.83-0.597 1.123-0.786l-3.859-5.645c-0.281 0.173-0.443 0.295-0.682 0.477-0.148 0.111-0.323 0.245-0.568 0.42-0.971 0.701-2.44 1.759-5.504 3.751l-0.393 0.258-6.343-8.996-0.094 0.059-0.163-0.355c-0.336 0.203-0.755 0.453-1.077 0.644l-0.422 0.253c-1.321 0.797-3.121 1.883-12.75 8.582zm-10.618 16.687c0.342 0.146 1.282 0.344 2.115 0.466 7.005-3.747 12.208-6.403 15.469-7.892 0.271-0.123 0.521-0.238 0.804-0.371l-3.075-6.353c-0.137 0.194-0.301 0.401-0.554 0.518-1.032 0.468-2.316 1.051-6.874 3.44l-0.43 0.225-5.227-9.894c-2.983 1.565-6.05 3.059-9.13 4.448zm71.406-31.433c15.027-15.409 27.378-32.727 36.859-51.382-2.431-0.993-4.917-2.006-7.464-3.042-21.399 41.722-56.967 75.024-100.31 93.523 1.028 2.541 2.035 5.026 3.019 7.445 25.178-10.684 48.225-26.371 67.895-46.544m71.723-36.92-6.634-2.783c-5.338-2.241-11.855-4.95-19.186-7.969-9.966 19.79-23.014 38.154-38.928 54.475-20.621 21.146-44.786 37.582-71.188 48.766 2.841 6.933 5.394 13.055 7.517 18.139l2.818 6.7h-198.39l2.635-6.615c2.318-5.856 5.15-13.028 8.312-21.114-22.625-10.478-43.506-24.892-61.768-42.912-18.004-17.765-32.552-38.124-43.287-60.252-9.316 3.524-18.012 6.837-25.606 9.77l-6.66 2.56v-201.95l6.645 2.528c6.17 2.359 13.095 4.977 20.498 7.757 10.497-25.22 25.789-48.479 45.436-68.625 18.637-19.115 40.181-34.374 63.646-45.393-1.892-5.479-3.683-10.592-5.338-15.325l-2.263-6.43h195.63l-2.187 6.388c-1.457 4.294-2.975 8.751-4.534 13.368 23.919 10.588 45.966 25.522 65.124 44.427 20.515 20.242 36.537 43.854 47.551 69.609 5.884-2.011 11.575-3.964 16.999-5.831l6.571-2.26z" fill="#b8cf69"/></g></g></svg>